<mxfile host="app.diagrams.net" agent="Mozilla/5.0 (Macintosh; Intel Mac OS X 10.15; rv:130.0) Gecko/20100101 Firefox/130.0" version="24.7.12">
  <diagram id="kgpKYQtTHZ0yAKxKKP6v" name="Page-1">
    <mxGraphModel dx="1475" dy="758" grid="1" gridSize="10" guides="1" tooltips="1" connect="1" arrows="1" fold="1" page="1" pageScale="1" pageWidth="850" pageHeight="1100" math="0" shadow="0">
      <root>
        <mxCell id="0" />
        <mxCell id="1" parent="0" />
        <mxCell id="wn9JL-O86wGXhkdQ3hnR-1" value="Ideal Commerce Release Cycle" style="rounded=0;whiteSpace=wrap;html=1;fillColor=#e1d5e7;strokeColor=#9673a6;" vertex="1" parent="1">
          <mxGeometry x="40" y="60" width="200" height="40" as="geometry" />
        </mxCell>
        <mxCell id="wn9JL-O86wGXhkdQ3hnR-4" value="DEVELOPMENT - 10 Days" style="rounded=0;whiteSpace=wrap;html=1;fillColor=#f8cecc;strokeColor=#b85450;" vertex="1" parent="1">
          <mxGeometry x="40" y="120" width="200" height="40" as="geometry" />
        </mxCell>
        <mxCell id="wn9JL-O86wGXhkdQ3hnR-5" value="DUT/FUT - 2 Days" style="rounded=0;whiteSpace=wrap;html=1;fillColor=#ffe6cc;strokeColor=#d79b00;" vertex="1" parent="1">
          <mxGeometry x="240" y="160" width="120" height="40" as="geometry" />
        </mxCell>
        <mxCell id="wn9JL-O86wGXhkdQ3hnR-6" value="QA - 10 Days" style="rounded=0;whiteSpace=wrap;html=1;fillColor=#fff2cc;strokeColor=#d6b656;" vertex="1" parent="1">
          <mxGeometry x="360" y="200" width="200" height="40" as="geometry" />
        </mxCell>
        <mxCell id="wn9JL-O86wGXhkdQ3hnR-7" value="STAGE/UAT - 2 Days" style="rounded=0;whiteSpace=wrap;html=1;fillColor=#d5e8d4;strokeColor=#82b366;" vertex="1" parent="1">
          <mxGeometry x="560" y="240" width="120" height="40" as="geometry" />
        </mxCell>
        <mxCell id="wn9JL-O86wGXhkdQ3hnR-8" value="PROD" style="rounded=0;whiteSpace=wrap;html=1;fillColor=#dae8fc;strokeColor=#6c8ebf;" vertex="1" parent="1">
          <mxGeometry x="680" y="280" width="40" height="40" as="geometry" />
        </mxCell>
        <mxCell id="wn9JL-O86wGXhkdQ3hnR-9" value="Realistic Commerce Release Cycle" style="rounded=0;whiteSpace=wrap;html=1;fillColor=#e1d5e7;strokeColor=#9673a6;" vertex="1" parent="1">
          <mxGeometry x="35" y="360" width="205" height="40" as="geometry" />
        </mxCell>
        <mxCell id="wn9JL-O86wGXhkdQ3hnR-10" value="DEVELOPMENT - 11 Days" style="rounded=0;whiteSpace=wrap;html=1;fillColor=#f8cecc;strokeColor=#b85450;" vertex="1" parent="1">
          <mxGeometry x="40" y="420" width="200" height="40" as="geometry" />
        </mxCell>
        <mxCell id="wn9JL-O86wGXhkdQ3hnR-11" value="DUT/FUT - 1" style="rounded=0;whiteSpace=wrap;html=1;fillColor=#ffe6cc;strokeColor=#d79b00;" vertex="1" parent="1">
          <mxGeometry x="240" y="460" width="60" height="40" as="geometry" />
        </mxCell>
        <mxCell id="wn9JL-O86wGXhkdQ3hnR-13" value="QA - 11 Days" style="rounded=0;whiteSpace=wrap;html=1;fillColor=#fff2cc;strokeColor=#d6b656;" vertex="1" parent="1">
          <mxGeometry x="300" y="500" width="250" height="40" as="geometry" />
        </mxCell>
        <mxCell id="wn9JL-O86wGXhkdQ3hnR-14" value="HOTFIX - Feature A" style="rounded=0;whiteSpace=wrap;html=1;fillColor=#f8cecc;strokeColor=#b85450;" vertex="1" parent="1">
          <mxGeometry x="330" y="425" width="60" height="30" as="geometry" />
        </mxCell>
        <mxCell id="wn9JL-O86wGXhkdQ3hnR-15" value="HOTFIX - Feature D" style="rounded=0;whiteSpace=wrap;html=1;fillColor=#f8cecc;strokeColor=#b85450;" vertex="1" parent="1">
          <mxGeometry x="480" y="425" width="65" height="40" as="geometry" />
        </mxCell>
        <mxCell id="wn9JL-O86wGXhkdQ3hnR-16" value="CPR DOWN" style="rounded=0;whiteSpace=wrap;html=1;fillColor=#f8cecc;strokeColor=#b85450;" vertex="1" parent="1">
          <mxGeometry x="440" y="560" width="60" height="30" as="geometry" />
        </mxCell>
        <mxCell id="wn9JL-O86wGXhkdQ3hnR-17" value="" style="endArrow=classic;html=1;rounded=0;exitX=0.5;exitY=1;exitDx=0;exitDy=0;entryX=0.407;entryY=0;entryDx=0;entryDy=0;entryPerimeter=0;" edge="1" parent="1" source="wn9JL-O86wGXhkdQ3hnR-14" target="wn9JL-O86wGXhkdQ3hnR-13">
          <mxGeometry width="50" height="50" relative="1" as="geometry">
            <mxPoint x="320" y="600" as="sourcePoint" />
            <mxPoint x="370" y="550" as="targetPoint" />
          </mxGeometry>
        </mxCell>
        <mxCell id="wn9JL-O86wGXhkdQ3hnR-18" value="" style="endArrow=classic;html=1;rounded=0;exitX=0.5;exitY=1;exitDx=0;exitDy=0;entryX=0.75;entryY=0;entryDx=0;entryDy=0;" edge="1" parent="1" source="wn9JL-O86wGXhkdQ3hnR-15" target="wn9JL-O86wGXhkdQ3hnR-13">
          <mxGeometry width="50" height="50" relative="1" as="geometry">
            <mxPoint x="320" y="600" as="sourcePoint" />
            <mxPoint x="370" y="550" as="targetPoint" />
          </mxGeometry>
        </mxCell>
        <mxCell id="wn9JL-O86wGXhkdQ3hnR-19" value="" style="endArrow=classic;html=1;rounded=0;entryX=0.5;entryY=1;entryDx=0;entryDy=0;" edge="1" parent="1" source="wn9JL-O86wGXhkdQ3hnR-16" target="wn9JL-O86wGXhkdQ3hnR-13">
          <mxGeometry width="50" height="50" relative="1" as="geometry">
            <mxPoint x="320" y="600" as="sourcePoint" />
            <mxPoint x="370" y="550" as="targetPoint" />
          </mxGeometry>
        </mxCell>
        <mxCell id="wn9JL-O86wGXhkdQ3hnR-23" value="STAGE/UAT - 1" style="rounded=0;whiteSpace=wrap;html=1;fillColor=#d5e8d4;strokeColor=#82b366;" vertex="1" parent="1">
          <mxGeometry x="550" y="540" width="60" height="60" as="geometry" />
        </mxCell>
        <mxCell id="wn9JL-O86wGXhkdQ3hnR-27" value="PROD" style="rounded=0;whiteSpace=wrap;html=1;fillColor=#dae8fc;strokeColor=#6c8ebf;" vertex="1" parent="1">
          <mxGeometry x="610" y="600" width="40" height="40" as="geometry" />
        </mxCell>
        <mxCell id="wn9JL-O86wGXhkdQ3hnR-41" value="Ideal Microservice Release Cycle" style="rounded=0;whiteSpace=wrap;html=1;fillColor=#e1d5e7;strokeColor=#9673a6;" vertex="1" parent="1">
          <mxGeometry x="50" y="710" width="200" height="40" as="geometry" />
        </mxCell>
        <mxCell id="wn9JL-O86wGXhkdQ3hnR-42" value="DEVELOPMENT - 10 Days" style="rounded=0;whiteSpace=wrap;html=1;fillColor=#f8cecc;strokeColor=#b85450;" vertex="1" parent="1">
          <mxGeometry x="50" y="770" width="200" height="40" as="geometry" />
        </mxCell>
        <mxCell id="wn9JL-O86wGXhkdQ3hnR-43" value="DUT/FUT - 2 Days" style="rounded=0;whiteSpace=wrap;html=1;fillColor=#ffe6cc;strokeColor=#d79b00;" vertex="1" parent="1">
          <mxGeometry x="250" y="810" width="120" height="40" as="geometry" />
        </mxCell>
        <mxCell id="wn9JL-O86wGXhkdQ3hnR-44" value="QA - 5 Days" style="rounded=0;whiteSpace=wrap;html=1;fillColor=#fff2cc;strokeColor=#d6b656;" vertex="1" parent="1">
          <mxGeometry x="370" y="850" width="200" height="40" as="geometry" />
        </mxCell>
        <mxCell id="wn9JL-O86wGXhkdQ3hnR-45" value="STAGE/UAT - 2 Days" style="rounded=0;whiteSpace=wrap;html=1;fillColor=#d5e8d4;strokeColor=#82b366;" vertex="1" parent="1">
          <mxGeometry x="570" y="890" width="120" height="40" as="geometry" />
        </mxCell>
        <mxCell id="wn9JL-O86wGXhkdQ3hnR-46" value="PROD" style="rounded=0;whiteSpace=wrap;html=1;fillColor=#dae8fc;strokeColor=#6c8ebf;" vertex="1" parent="1">
          <mxGeometry x="690" y="930" width="40" height="40" as="geometry" />
        </mxCell>
        <mxCell id="wn9JL-O86wGXhkdQ3hnR-47" value="Realistic Microservice Release Cycle" style="rounded=0;whiteSpace=wrap;html=1;fillColor=#e1d5e7;strokeColor=#9673a6;" vertex="1" parent="1">
          <mxGeometry x="50" y="1000" width="200" height="40" as="geometry" />
        </mxCell>
        <mxCell id="wn9JL-O86wGXhkdQ3hnR-48" value="DEVELOPMENT - 8 Days" style="rounded=0;whiteSpace=wrap;html=1;fillColor=#f8cecc;strokeColor=#b85450;" vertex="1" parent="1">
          <mxGeometry x="50" y="1060" width="200" height="40" as="geometry" />
        </mxCell>
        <mxCell id="wn9JL-O86wGXhkdQ3hnR-49" value="DUT/FUT - 2 Days" style="rounded=0;whiteSpace=wrap;html=1;fillColor=#ffe6cc;strokeColor=#d79b00;" vertex="1" parent="1">
          <mxGeometry x="250" y="1100" width="120" height="40" as="geometry" />
        </mxCell>
        <mxCell id="wn9JL-O86wGXhkdQ3hnR-50" value="QA - 9 Days" style="rounded=0;whiteSpace=wrap;html=1;fillColor=#fff2cc;strokeColor=#d6b656;" vertex="1" parent="1">
          <mxGeometry x="370" y="1140" width="200" height="40" as="geometry" />
        </mxCell>
        <mxCell id="wn9JL-O86wGXhkdQ3hnR-51" value="STAGE/UAT - 2 Days" style="rounded=0;whiteSpace=wrap;html=1;fillColor=#d5e8d4;strokeColor=#82b366;" vertex="1" parent="1">
          <mxGeometry x="570" y="1180" width="120" height="40" as="geometry" />
        </mxCell>
        <mxCell id="wn9JL-O86wGXhkdQ3hnR-52" value="PROD" style="rounded=0;whiteSpace=wrap;html=1;fillColor=#dae8fc;strokeColor=#6c8ebf;" vertex="1" parent="1">
          <mxGeometry x="690" y="1220" width="40" height="40" as="geometry" />
        </mxCell>
        <mxCell id="wn9JL-O86wGXhkdQ3hnR-53" value="CPR DOWN" style="rounded=0;whiteSpace=wrap;html=1;fillColor=#f8cecc;strokeColor=#b85450;" vertex="1" parent="1">
          <mxGeometry x="450" y="1210" width="90" height="40" as="geometry" />
        </mxCell>
        <mxCell id="wn9JL-O86wGXhkdQ3hnR-54" value="HOTFIX - Feature A" style="rounded=0;whiteSpace=wrap;html=1;fillColor=#f8cecc;strokeColor=#b85450;" vertex="1" parent="1">
          <mxGeometry x="390" y="1080" width="130" height="30" as="geometry" />
        </mxCell>
        <mxCell id="wn9JL-O86wGXhkdQ3hnR-55" value="" style="endArrow=classic;html=1;rounded=0;exitX=0.5;exitY=1;exitDx=0;exitDy=0;entryX=0.393;entryY=-0.033;entryDx=0;entryDy=0;entryPerimeter=0;" edge="1" parent="1" source="wn9JL-O86wGXhkdQ3hnR-54" target="wn9JL-O86wGXhkdQ3hnR-50">
          <mxGeometry width="50" height="50" relative="1" as="geometry">
            <mxPoint x="390" y="1100" as="sourcePoint" />
            <mxPoint x="440" y="1050" as="targetPoint" />
          </mxGeometry>
        </mxCell>
        <mxCell id="wn9JL-O86wGXhkdQ3hnR-56" value="" style="endArrow=classic;html=1;rounded=0;exitX=0.444;exitY=0;exitDx=0;exitDy=0;exitPerimeter=0;entryX=0.75;entryY=1;entryDx=0;entryDy=0;" edge="1" parent="1" source="wn9JL-O86wGXhkdQ3hnR-53" target="wn9JL-O86wGXhkdQ3hnR-50">
          <mxGeometry width="50" height="50" relative="1" as="geometry">
            <mxPoint x="390" y="1180" as="sourcePoint" />
            <mxPoint x="440" y="1130" as="targetPoint" />
          </mxGeometry>
        </mxCell>
      </root>
    </mxGraphModel>
  </diagram>
</mxfile>
